<?xml version="1.0" encoding="utf-8"?>
<svg xmlns="http://www.w3.org/2000/svg" xmlns:xlink="http://www.w3.org/1999/xlink" width="600" height="400" viewBox="0 0 2400 1600">
<defs>
  <clipPath id="clip070">
    <rect x="0" y="0" width="2400" height="1600"/>
  </clipPath>
</defs>
<path clip-path="url(#clip070)" d="
M0 1600 L2400 1600 L2400 0 L0 0  Z
  " fill="#ffffff" fill-rule="evenodd" fill-opacity="1"/>
<defs>
  <clipPath id="clip071">
    <rect x="480" y="0" width="1681" height="1600"/>
  </clipPath>
</defs>
<path clip-path="url(#clip070)" d="
M142.455 1486.45 L2352.76 1486.45 L2352.76 47.2441 L142.455 47.2441  Z
  " fill="#ffffff" fill-rule="evenodd" fill-opacity="1"/>
<defs>
  <clipPath id="clip072">
    <rect x="142" y="47" width="2211" height="1440"/>
  </clipPath>
</defs>
<polyline clip-path="url(#clip072)" style="stroke:#000000; stroke-width:2; stroke-opacity:0.1; fill:none" points="
  232.493,1486.45 232.493,47.2441 
  "/>
<polyline clip-path="url(#clip072)" style="stroke:#000000; stroke-width:2; stroke-opacity:0.1; fill:none" points="
  570.864,1486.45 570.864,47.2441 
  "/>
<polyline clip-path="url(#clip072)" style="stroke:#000000; stroke-width:2; stroke-opacity:0.1; fill:none" points="
  909.235,1486.45 909.235,47.2441 
  "/>
<polyline clip-path="url(#clip072)" style="stroke:#000000; stroke-width:2; stroke-opacity:0.1; fill:none" points="
  1247.61,1486.45 1247.61,47.2441 
  "/>
<polyline clip-path="url(#clip072)" style="stroke:#000000; stroke-width:2; stroke-opacity:0.1; fill:none" points="
  1585.98,1486.45 1585.98,47.2441 
  "/>
<polyline clip-path="url(#clip072)" style="stroke:#000000; stroke-width:2; stroke-opacity:0.1; fill:none" points="
  1924.35,1486.45 1924.35,47.2441 
  "/>
<polyline clip-path="url(#clip072)" style="stroke:#000000; stroke-width:2; stroke-opacity:0.1; fill:none" points="
  2262.72,1486.45 2262.72,47.2441 
  "/>
<polyline clip-path="url(#clip070)" style="stroke:#000000; stroke-width:4; stroke-opacity:1; fill:none" points="
  142.455,1486.45 2352.76,1486.45 
  "/>
<polyline clip-path="url(#clip070)" style="stroke:#000000; stroke-width:4; stroke-opacity:1; fill:none" points="
  232.493,1486.45 232.493,1469.18 
  "/>
<polyline clip-path="url(#clip070)" style="stroke:#000000; stroke-width:4; stroke-opacity:1; fill:none" points="
  570.864,1486.45 570.864,1469.18 
  "/>
<polyline clip-path="url(#clip070)" style="stroke:#000000; stroke-width:4; stroke-opacity:1; fill:none" points="
  909.235,1486.45 909.235,1469.18 
  "/>
<polyline clip-path="url(#clip070)" style="stroke:#000000; stroke-width:4; stroke-opacity:1; fill:none" points="
  1247.61,1486.45 1247.61,1469.18 
  "/>
<polyline clip-path="url(#clip070)" style="stroke:#000000; stroke-width:4; stroke-opacity:1; fill:none" points="
  1585.98,1486.45 1585.98,1469.18 
  "/>
<polyline clip-path="url(#clip070)" style="stroke:#000000; stroke-width:4; stroke-opacity:1; fill:none" points="
  1924.35,1486.45 1924.35,1469.18 
  "/>
<polyline clip-path="url(#clip070)" style="stroke:#000000; stroke-width:4; stroke-opacity:1; fill:none" points="
  2262.72,1486.45 2262.72,1469.18 
  "/>
<path clip-path="url(#clip070)" d="M 0 0 M185.989 1530.29 L215.665 1530.29 L215.665 1534.23 L185.989 1534.23 L185.989 1530.29 Z" fill="#000000" fill-rule="evenodd" fill-opacity="1" /><path clip-path="url(#clip070)" d="M 0 0 M230.734 1515.64 Q227.123 1515.64 225.294 1519.2 Q223.489 1522.75 223.489 1529.87 Q223.489 1536.98 225.294 1540.55 Q227.123 1544.09 230.734 1544.09 Q234.368 1544.09 236.174 1540.55 Q238.003 1536.98 238.003 1529.87 Q238.003 1522.75 236.174 1519.2 Q234.368 1515.64 230.734 1515.64 M230.734 1511.93 Q236.544 1511.93 239.6 1516.54 Q242.679 1521.12 242.679 1529.87 Q242.679 1538.6 239.6 1543.21 Q236.544 1547.79 230.734 1547.79 Q224.924 1547.79 221.845 1543.21 Q218.79 1538.6 218.79 1529.87 Q218.79 1521.12 221.845 1516.54 Q224.924 1511.93 230.734 1511.93 Z" fill="#000000" fill-rule="evenodd" fill-opacity="1" /><path clip-path="url(#clip070)" d="M 0 0 M247.748 1541.24 L252.632 1541.24 L252.632 1547.12 L247.748 1547.12 L247.748 1541.24 Z" fill="#000000" fill-rule="evenodd" fill-opacity="1" /><path clip-path="url(#clip070)" d="M 0 0 M271.868 1528.49 Q275.225 1529.2 277.1 1531.47 Q278.998 1533.74 278.998 1537.07 Q278.998 1542.19 275.479 1544.99 Q271.961 1547.79 265.479 1547.79 Q263.303 1547.79 260.989 1547.35 Q258.697 1546.93 256.243 1546.08 L256.243 1541.56 Q258.188 1542.7 260.503 1543.28 Q262.817 1543.86 265.34 1543.86 Q269.739 1543.86 272.03 1542.12 Q274.345 1540.38 274.345 1537.07 Q274.345 1534.02 272.192 1532.31 Q270.063 1530.57 266.243 1530.57 L262.216 1530.57 L262.216 1526.73 L266.428 1526.73 Q269.877 1526.73 271.706 1525.36 Q273.535 1523.97 273.535 1521.38 Q273.535 1518.72 271.637 1517.31 Q269.762 1515.87 266.243 1515.87 Q264.322 1515.87 262.123 1516.29 Q259.924 1516.7 257.285 1517.58 L257.285 1513.42 Q259.947 1512.68 262.262 1512.31 Q264.6 1511.93 266.66 1511.93 Q271.984 1511.93 275.086 1514.37 Q278.188 1516.77 278.188 1520.89 Q278.188 1523.76 276.544 1525.75 Q274.901 1527.72 271.868 1528.49 Z" fill="#000000" fill-rule="evenodd" fill-opacity="1" /><path clip-path="url(#clip070)" d="M 0 0 M524.834 1530.29 L554.51 1530.29 L554.51 1534.23 L524.834 1534.23 L524.834 1530.29 Z" fill="#000000" fill-rule="evenodd" fill-opacity="1" /><path clip-path="url(#clip070)" d="M 0 0 M569.579 1515.64 Q565.968 1515.64 564.14 1519.2 Q562.334 1522.75 562.334 1529.87 Q562.334 1536.98 564.14 1540.55 Q565.968 1544.09 569.579 1544.09 Q573.214 1544.09 575.019 1540.55 Q576.848 1536.98 576.848 1529.87 Q576.848 1522.75 575.019 1519.2 Q573.214 1515.64 569.579 1515.64 M569.579 1511.93 Q575.39 1511.93 578.445 1516.54 Q581.524 1521.12 581.524 1529.87 Q581.524 1538.6 578.445 1543.21 Q575.39 1547.79 569.579 1547.79 Q563.769 1547.79 560.691 1543.21 Q557.635 1538.6 557.635 1529.87 Q557.635 1521.12 560.691 1516.54 Q563.769 1511.93 569.579 1511.93 Z" fill="#000000" fill-rule="evenodd" fill-opacity="1" /><path clip-path="url(#clip070)" d="M 0 0 M586.593 1541.24 L591.477 1541.24 L591.477 1547.12 L586.593 1547.12 L586.593 1541.24 Z" fill="#000000" fill-rule="evenodd" fill-opacity="1" /><path clip-path="url(#clip070)" d="M 0 0 M600.575 1543.18 L616.894 1543.18 L616.894 1547.12 L594.95 1547.12 L594.95 1543.18 Q597.612 1540.43 602.195 1535.8 Q606.801 1531.15 607.982 1529.81 Q610.227 1527.28 611.107 1525.55 Q612.01 1523.79 612.01 1522.1 Q612.01 1519.34 610.065 1517.61 Q608.144 1515.87 605.042 1515.87 Q602.843 1515.87 600.389 1516.63 Q597.959 1517.4 595.181 1518.95 L595.181 1514.23 Q598.005 1513.09 600.459 1512.51 Q602.913 1511.93 604.95 1511.93 Q610.32 1511.93 613.514 1514.62 Q616.709 1517.31 616.709 1521.8 Q616.709 1523.93 615.899 1525.85 Q615.112 1527.74 613.005 1530.34 Q612.426 1531.01 609.325 1534.23 Q606.223 1537.42 600.575 1543.18 Z" fill="#000000" fill-rule="evenodd" fill-opacity="1" /><path clip-path="url(#clip070)" d="M 0 0 M863.02 1530.29 L892.695 1530.29 L892.695 1534.23 L863.02 1534.23 L863.02 1530.29 Z" fill="#000000" fill-rule="evenodd" fill-opacity="1" /><path clip-path="url(#clip070)" d="M 0 0 M907.765 1515.64 Q904.154 1515.64 902.325 1519.2 Q900.519 1522.75 900.519 1529.87 Q900.519 1536.98 902.325 1540.55 Q904.154 1544.09 907.765 1544.09 Q911.399 1544.09 913.205 1540.55 Q915.033 1536.98 915.033 1529.87 Q915.033 1522.75 913.205 1519.2 Q911.399 1515.64 907.765 1515.64 M907.765 1511.93 Q913.575 1511.93 916.631 1516.54 Q919.709 1521.12 919.709 1529.87 Q919.709 1538.6 916.631 1543.21 Q913.575 1547.79 907.765 1547.79 Q901.955 1547.79 898.876 1543.21 Q895.82 1538.6 895.82 1529.87 Q895.82 1521.12 898.876 1516.54 Q901.955 1511.93 907.765 1511.93 Z" fill="#000000" fill-rule="evenodd" fill-opacity="1" /><path clip-path="url(#clip070)" d="M 0 0 M924.779 1541.24 L929.663 1541.24 L929.663 1547.12 L924.779 1547.12 L924.779 1541.24 Z" fill="#000000" fill-rule="evenodd" fill-opacity="1" /><path clip-path="url(#clip070)" d="M 0 0 M935.542 1543.18 L943.181 1543.18 L943.181 1516.82 L934.871 1518.49 L934.871 1514.23 L943.135 1512.56 L947.811 1512.56 L947.811 1543.18 L955.45 1543.18 L955.45 1547.12 L935.542 1547.12 L935.542 1543.18 Z" fill="#000000" fill-rule="evenodd" fill-opacity="1" /><path clip-path="url(#clip070)" d="M 0 0 M1229.12 1515.64 Q1225.51 1515.64 1223.68 1519.2 Q1221.88 1522.75 1221.88 1529.87 Q1221.88 1536.98 1223.68 1540.55 Q1225.51 1544.09 1229.12 1544.09 Q1232.76 1544.09 1234.56 1540.55 Q1236.39 1536.98 1236.39 1529.87 Q1236.39 1522.75 1234.56 1519.2 Q1232.76 1515.64 1229.12 1515.64 M1229.12 1511.93 Q1234.93 1511.93 1237.99 1516.54 Q1241.07 1521.12 1241.07 1529.87 Q1241.07 1538.6 1237.99 1543.21 Q1234.93 1547.79 1229.12 1547.79 Q1223.31 1547.79 1220.23 1543.21 Q1217.18 1538.6 1217.18 1529.87 Q1217.18 1521.12 1220.23 1516.54 Q1223.31 1511.93 1229.12 1511.93 Z" fill="#000000" fill-rule="evenodd" fill-opacity="1" /><path clip-path="url(#clip070)" d="M 0 0 M1246.14 1541.24 L1251.02 1541.24 L1251.02 1547.12 L1246.14 1547.12 L1246.14 1541.24 Z" fill="#000000" fill-rule="evenodd" fill-opacity="1" /><path clip-path="url(#clip070)" d="M 0 0 M1266.09 1515.64 Q1262.48 1515.64 1260.65 1519.2 Q1258.84 1522.75 1258.84 1529.87 Q1258.84 1536.98 1260.65 1540.55 Q1262.48 1544.09 1266.09 1544.09 Q1269.72 1544.09 1271.53 1540.55 Q1273.36 1536.98 1273.36 1529.87 Q1273.36 1522.75 1271.53 1519.2 Q1269.72 1515.64 1266.09 1515.64 M1266.09 1511.93 Q1271.9 1511.93 1274.95 1516.54 Q1278.03 1521.12 1278.03 1529.87 Q1278.03 1538.6 1274.95 1543.21 Q1271.9 1547.79 1266.09 1547.79 Q1260.28 1547.79 1257.2 1543.21 Q1254.14 1538.6 1254.14 1529.87 Q1254.14 1521.12 1257.2 1516.54 Q1260.28 1511.93 1266.09 1511.93 Z" fill="#000000" fill-rule="evenodd" fill-opacity="1" /><path clip-path="url(#clip070)" d="M 0 0 M1568.11 1515.64 Q1564.49 1515.64 1562.67 1519.2 Q1560.86 1522.75 1560.86 1529.87 Q1560.86 1536.98 1562.67 1540.55 Q1564.49 1544.09 1568.11 1544.09 Q1571.74 1544.09 1573.55 1540.55 Q1575.37 1536.98 1575.37 1529.87 Q1575.37 1522.75 1573.55 1519.2 Q1571.74 1515.64 1568.11 1515.64 M1568.11 1511.93 Q1573.92 1511.93 1576.97 1516.54 Q1580.05 1521.12 1580.05 1529.87 Q1580.05 1538.6 1576.97 1543.21 Q1573.92 1547.79 1568.11 1547.79 Q1562.3 1547.79 1559.22 1543.21 Q1556.16 1538.6 1556.16 1529.87 Q1556.16 1521.12 1559.22 1516.54 Q1562.3 1511.93 1568.11 1511.93 Z" fill="#000000" fill-rule="evenodd" fill-opacity="1" /><path clip-path="url(#clip070)" d="M 0 0 M1585.12 1541.24 L1590 1541.24 L1590 1547.12 L1585.12 1547.12 L1585.12 1541.24 Z" fill="#000000" fill-rule="evenodd" fill-opacity="1" /><path clip-path="url(#clip070)" d="M 0 0 M1595.88 1543.18 L1603.52 1543.18 L1603.52 1516.82 L1595.21 1518.49 L1595.21 1514.23 L1603.48 1512.56 L1608.15 1512.56 L1608.15 1543.18 L1615.79 1543.18 L1615.79 1547.12 L1595.88 1547.12 L1595.88 1543.18 Z" fill="#000000" fill-rule="evenodd" fill-opacity="1" /><path clip-path="url(#clip070)" d="M 0 0 M1906.66 1515.64 Q1903.05 1515.64 1901.22 1519.2 Q1899.42 1522.75 1899.42 1529.87 Q1899.42 1536.98 1901.22 1540.55 Q1903.05 1544.09 1906.66 1544.09 Q1910.3 1544.09 1912.1 1540.55 Q1913.93 1536.98 1913.93 1529.87 Q1913.93 1522.75 1912.1 1519.2 Q1910.3 1515.64 1906.66 1515.64 M1906.66 1511.93 Q1912.47 1511.93 1915.53 1516.54 Q1918.61 1521.12 1918.61 1529.87 Q1918.61 1538.6 1915.53 1543.21 Q1912.47 1547.79 1906.66 1547.79 Q1900.85 1547.79 1897.77 1543.21 Q1894.72 1538.6 1894.72 1529.87 Q1894.72 1521.12 1897.77 1516.54 Q1900.85 1511.93 1906.66 1511.93 Z" fill="#000000" fill-rule="evenodd" fill-opacity="1" /><path clip-path="url(#clip070)" d="M 0 0 M1923.68 1541.24 L1928.56 1541.24 L1928.56 1547.12 L1923.68 1547.12 L1923.68 1541.24 Z" fill="#000000" fill-rule="evenodd" fill-opacity="1" /><path clip-path="url(#clip070)" d="M 0 0 M1937.66 1543.18 L1953.98 1543.18 L1953.98 1547.12 L1932.03 1547.12 L1932.03 1543.18 Q1934.69 1540.43 1939.28 1535.8 Q1943.88 1531.15 1945.06 1529.81 Q1947.31 1527.28 1948.19 1525.55 Q1949.09 1523.79 1949.09 1522.1 Q1949.09 1519.34 1947.15 1517.61 Q1945.23 1515.87 1942.12 1515.87 Q1939.93 1515.87 1937.47 1516.63 Q1935.04 1517.4 1932.26 1518.95 L1932.26 1514.23 Q1935.09 1513.09 1937.54 1512.51 Q1939.99 1511.93 1942.03 1511.93 Q1947.4 1511.93 1950.6 1514.62 Q1953.79 1517.31 1953.79 1521.8 Q1953.79 1523.93 1952.98 1525.85 Q1952.19 1527.74 1950.09 1530.34 Q1949.51 1531.01 1946.41 1534.23 Q1943.3 1537.42 1937.66 1543.18 Z" fill="#000000" fill-rule="evenodd" fill-opacity="1" /><path clip-path="url(#clip070)" d="M 0 0 M2244.56 1515.64 Q2240.95 1515.64 2239.12 1519.2 Q2237.31 1522.75 2237.31 1529.87 Q2237.31 1536.98 2239.12 1540.55 Q2240.95 1544.09 2244.56 1544.09 Q2248.19 1544.09 2250 1540.55 Q2251.83 1536.98 2251.83 1529.87 Q2251.83 1522.75 2250 1519.2 Q2248.19 1515.64 2244.56 1515.64 M2244.56 1511.93 Q2250.37 1511.93 2253.42 1516.54 Q2256.5 1521.12 2256.5 1529.87 Q2256.5 1538.6 2253.42 1543.21 Q2250.37 1547.79 2244.56 1547.79 Q2238.75 1547.79 2235.67 1543.21 Q2232.61 1538.6 2232.61 1529.87 Q2232.61 1521.12 2235.67 1516.54 Q2238.75 1511.93 2244.56 1511.93 Z" fill="#000000" fill-rule="evenodd" fill-opacity="1" /><path clip-path="url(#clip070)" d="M 0 0 M2261.57 1541.24 L2266.46 1541.24 L2266.46 1547.12 L2261.57 1547.12 L2261.57 1541.24 Z" fill="#000000" fill-rule="evenodd" fill-opacity="1" /><path clip-path="url(#clip070)" d="M 0 0 M2285.69 1528.49 Q2289.05 1529.2 2290.92 1531.47 Q2292.82 1533.74 2292.82 1537.07 Q2292.82 1542.19 2289.3 1544.99 Q2285.78 1547.79 2279.3 1547.79 Q2277.13 1547.79 2274.81 1547.35 Q2272.52 1546.93 2270.07 1546.08 L2270.07 1541.56 Q2272.01 1542.7 2274.33 1543.28 Q2276.64 1543.86 2279.16 1543.86 Q2283.56 1543.86 2285.85 1542.12 Q2288.17 1540.38 2288.17 1537.07 Q2288.17 1534.02 2286.02 1532.31 Q2283.89 1530.57 2280.07 1530.57 L2276.04 1530.57 L2276.04 1526.73 L2280.25 1526.73 Q2283.7 1526.73 2285.53 1525.36 Q2287.36 1523.97 2287.36 1521.38 Q2287.36 1518.72 2285.46 1517.31 Q2283.59 1515.87 2280.07 1515.87 Q2278.15 1515.87 2275.95 1516.29 Q2273.75 1516.7 2271.11 1517.58 L2271.11 1513.42 Q2273.77 1512.68 2276.09 1512.31 Q2278.42 1511.93 2280.48 1511.93 Q2285.81 1511.93 2288.91 1514.37 Q2292.01 1516.77 2292.01 1520.89 Q2292.01 1523.76 2290.37 1525.75 Q2288.72 1527.72 2285.69 1528.49 Z" fill="#000000" fill-rule="evenodd" fill-opacity="1" /><polyline clip-path="url(#clip072)" style="stroke:#000000; stroke-width:2; stroke-opacity:0.1; fill:none" points="
  142.455,1263.47 2352.76,1263.47 
  "/>
<polyline clip-path="url(#clip072)" style="stroke:#000000; stroke-width:2; stroke-opacity:0.1; fill:none" points="
  142.455,1015.16 2352.76,1015.16 
  "/>
<polyline clip-path="url(#clip072)" style="stroke:#000000; stroke-width:2; stroke-opacity:0.1; fill:none" points="
  142.455,766.846 2352.76,766.846 
  "/>
<polyline clip-path="url(#clip072)" style="stroke:#000000; stroke-width:2; stroke-opacity:0.1; fill:none" points="
  142.455,518.534 2352.76,518.534 
  "/>
<polyline clip-path="url(#clip072)" style="stroke:#000000; stroke-width:2; stroke-opacity:0.1; fill:none" points="
  142.455,270.221 2352.76,270.221 
  "/>
<polyline clip-path="url(#clip070)" style="stroke:#000000; stroke-width:4; stroke-opacity:1; fill:none" points="
  142.455,1486.45 142.455,47.2441 
  "/>
<polyline clip-path="url(#clip070)" style="stroke:#000000; stroke-width:4; stroke-opacity:1; fill:none" points="
  142.455,1263.47 168.978,1263.47 
  "/>
<polyline clip-path="url(#clip070)" style="stroke:#000000; stroke-width:4; stroke-opacity:1; fill:none" points="
  142.455,1015.16 168.978,1015.16 
  "/>
<polyline clip-path="url(#clip070)" style="stroke:#000000; stroke-width:4; stroke-opacity:1; fill:none" points="
  142.455,766.846 168.978,766.846 
  "/>
<polyline clip-path="url(#clip070)" style="stroke:#000000; stroke-width:4; stroke-opacity:1; fill:none" points="
  142.455,518.534 168.978,518.534 
  "/>
<polyline clip-path="url(#clip070)" style="stroke:#000000; stroke-width:4; stroke-opacity:1; fill:none" points="
  142.455,270.221 168.978,270.221 
  "/>
<path clip-path="url(#clip070)" d="M 0 0 M51.3625 1263.92 L81.0383 1263.92 L81.0383 1267.86 L51.3625 1267.86 L51.3625 1263.92 Z" fill="#000000" fill-rule="evenodd" fill-opacity="1" /><path clip-path="url(#clip070)" d="M 0 0 M90.1354 1276.82 L106.455 1276.82 L106.455 1280.75 L84.5105 1280.75 L84.5105 1276.82 Q87.1725 1274.06 91.7558 1269.43 Q96.3623 1264.78 97.5428 1263.44 Q99.7882 1260.91 100.668 1259.18 Q101.571 1257.42 101.571 1255.73 Q101.571 1252.97 99.6261 1251.24 Q97.7048 1249.5 94.603 1249.5 Q92.4039 1249.5 89.9503 1250.26 Q87.5197 1251.03 84.7419 1252.58 L84.7419 1247.86 Q87.566 1246.72 90.0197 1246.14 Q92.4734 1245.57 94.5104 1245.57 Q99.8808 1245.57 103.075 1248.25 Q106.27 1250.94 106.27 1255.43 Q106.27 1257.56 105.459 1259.48 Q104.672 1261.38 102.566 1263.97 Q101.987 1264.64 98.8854 1267.86 Q95.7836 1271.05 90.1354 1276.82 Z" fill="#000000" fill-rule="evenodd" fill-opacity="1" /><path clip-path="url(#clip070)" d="M 0 0 M50.9921 1015.61 L80.6679 1015.61 L80.6679 1019.54 L50.9921 1019.54 L50.9921 1015.61 Z" fill="#000000" fill-rule="evenodd" fill-opacity="1" /><path clip-path="url(#clip070)" d="M 0 0 M86.5475 1028.5 L94.1863 1028.5 L94.1863 1002.14 L85.8762 1003.8 L85.8762 999.545 L94.14 997.878 L98.8159 997.878 L98.8159 1028.5 L106.455 1028.5 L106.455 1032.44 L86.5475 1032.44 L86.5475 1028.5 Z" fill="#000000" fill-rule="evenodd" fill-opacity="1" /><path clip-path="url(#clip070)" d="M 0 0 M94.5104 752.645 Q90.8993 752.645 89.0706 756.209 Q87.2651 759.751 87.2651 766.881 Q87.2651 773.987 89.0706 777.552 Q90.8993 781.094 94.5104 781.094 Q98.1447 781.094 99.9502 777.552 Q101.779 773.987 101.779 766.881 Q101.779 759.751 99.9502 756.209 Q98.1447 752.645 94.5104 752.645 M94.5104 748.941 Q100.321 748.941 103.376 753.547 Q106.455 758.131 106.455 766.881 Q106.455 775.608 103.376 780.214 Q100.321 784.797 94.5104 784.797 Q88.7003 784.797 85.6216 780.214 Q82.566 775.608 82.566 766.881 Q82.566 758.131 85.6216 753.547 Q88.7003 748.941 94.5104 748.941 Z" fill="#000000" fill-rule="evenodd" fill-opacity="1" /><path clip-path="url(#clip070)" d="M 0 0 M86.5475 531.879 L94.1863 531.879 L94.1863 505.513 L85.8762 507.18 L85.8762 502.92 L94.14 501.254 L98.8159 501.254 L98.8159 531.879 L106.455 531.879 L106.455 535.814 L86.5475 535.814 L86.5475 531.879 Z" fill="#000000" fill-rule="evenodd" fill-opacity="1" /><path clip-path="url(#clip070)" d="M 0 0 M90.1354 283.566 L106.455 283.566 L106.455 287.501 L84.5105 287.501 L84.5105 283.566 Q87.1725 280.812 91.7558 276.182 Q96.3623 271.529 97.5428 270.187 Q99.7882 267.664 100.668 265.927 Q101.571 264.168 101.571 262.478 Q101.571 259.724 99.6261 257.988 Q97.7048 256.252 94.603 256.252 Q92.4039 256.252 89.9503 257.015 Q87.5197 257.779 84.7419 259.33 L84.7419 254.608 Q87.566 253.474 90.0197 252.895 Q92.4734 252.316 94.5104 252.316 Q99.8808 252.316 103.075 255.002 Q106.27 257.687 106.27 262.177 Q106.27 264.307 105.459 266.228 Q104.672 268.126 102.566 270.719 Q101.987 271.39 98.8854 274.608 Q95.7836 277.802 90.1354 283.566 Z" fill="#000000" fill-rule="evenodd" fill-opacity="1" /><polyline clip-path="url(#clip072)" style="stroke:#009af9; stroke-width:4; stroke-opacity:1; fill:none" points="
  390.245,1445.72 405.167,1417.86 420.297,1390.66 435.636,1364.11 451.185,1338.19 466.941,1312.87 482.906,1288.13 499.079,1263.96 515.458,1240.32 532.042,1217.22 
  548.83,1194.61 565.821,1172.49 583.013,1150.84 600.404,1129.63 617.991,1108.85 635.772,1088.48 653.745,1068.5 671.906,1048.9 690.252,1029.65 708.779,1010.73 
  727.484,992.133 746.364,973.836 765.412,955.822 784.626,938.072 804,920.57 823.53,903.298 843.209,886.238 863.033,869.372 882.995,852.685 903.09,836.157 
  923.312,819.772 943.653,803.512 964.108,787.361 984.669,771.299 1005.33,766.846 1026.08,766.846 1046.92,766.846 1067.84,766.846 1088.82,766.846 1109.87,766.846 
  1130.96,766.846 1152.11,766.846 1173.29,766.846 1194.5,766.846 1215.74,766.846 1236.98,766.846 1258.23,766.846 1279.47,766.846 1300.71,766.846 1321.92,766.846 
  1343.1,766.846 1364.25,766.846 1385.35,766.846 1406.39,766.846 1427.38,766.846 1448.29,766.846 1469.13,766.846 1489.88,766.846 1510.54,762.393 1531.1,746.331 
  1551.56,730.18 1571.9,713.92 1592.12,697.535 1612.22,681.007 1632.18,664.32 1652,647.454 1671.68,630.394 1691.21,613.122 1710.58,595.62 1729.8,577.87 
  1748.85,559.856 1767.73,541.559 1786.43,522.961 1804.96,504.045 1823.31,484.793 1841.47,465.187 1859.44,445.208 1877.22,424.839 1894.81,404.06 1912.2,382.853 
  1929.39,361.199 1946.38,339.08 1963.17,316.476 1979.75,293.368 1996.13,269.736 2012.3,245.562 2028.27,220.824 2044.03,195.502 2059.57,169.578 2074.91,143.029 
  2090.04,115.835 2104.97,87.9763 
  "/>
<polyline clip-path="url(#clip072)" style="stroke:#e26f46; stroke-width:4; stroke-opacity:1; fill:none" points="
  209.766,768.385 227.828,768.35 246.144,768.314 264.712,768.279 283.533,768.244 302.607,768.209 321.933,768.173 341.509,768.138 361.336,768.103 381.412,768.067 
  401.734,768.032 422.302,767.996 443.113,767.961 464.164,767.926 485.453,767.89 506.978,767.855 528.733,767.82 550.717,767.785 572.925,767.75 595.353,767.715 
  617.996,767.68 640.849,767.645 663.908,767.61 687.166,767.576 710.619,767.541 734.259,767.507 758.081,767.473 782.078,767.438 806.242,767.404 830.568,767.37 
  855.046,767.337 879.669,767.303 904.43,767.269 929.32,767.236 954.33,767.202 979.451,767.169 1004.67,767.136 1029.99,767.103 1055.39,767.07 1080.87,767.037 
  1106.41,767.004 1132.01,766.971 1157.65,766.939 1183.33,766.906 1209.03,766.874 1234.74,766.846 1260.47,766.846 1286.18,766.818 1311.89,766.786 1337.56,766.753 
  1363.2,766.721 1388.8,766.688 1414.34,766.655 1439.82,766.622 1465.22,766.589 1490.54,766.556 1515.76,766.523 1540.88,766.49 1565.89,766.456 1590.78,766.423 
  1615.54,766.389 1640.16,766.355 1664.64,766.322 1688.97,766.288 1713.13,766.254 1737.13,766.219 1760.95,766.185 1784.59,766.151 1808.04,766.116 1831.3,766.082 
  1854.36,766.047 1877.21,766.012 1899.86,765.977 1922.29,765.942 1944.49,765.907 1966.48,765.872 1988.23,765.837 2009.76,765.802 2031.05,765.766 2052.1,765.731 
  2072.91,765.696 2093.48,765.66 2113.8,765.625 2133.87,765.589 2153.7,765.554 2173.28,765.519 2192.6,765.483 2211.68,765.448 2230.5,765.413 2249.07,765.377 
  2267.38,765.342 2285.44,765.307 
  "/>
<polyline clip-path="url(#clip072)" style="stroke:#3da44d; stroke-width:4; stroke-opacity:1; fill:none" points="
  205.01,766.886 223.156,766.885 241.555,766.885 260.208,766.884 279.116,766.883 298.277,766.882 317.691,766.881 337.358,766.88 357.275,766.879 377.443,766.878 
  397.858,766.877 418.52,766.876 439.427,766.875 460.574,766.874 481.961,766.873 503.584,766.872 525.44,766.872 547.524,766.871 569.834,766.87 592.364,766.869 
  615.111,766.868 638.069,766.867 661.233,766.866 684.598,766.865 708.158,766.864 731.907,766.863 755.838,766.862 779.945,766.862 804.22,766.861 828.657,766.86 
  853.247,766.859 877.984,766.858 902.858,766.857 927.861,766.856 952.986,766.855 978.222,766.854 1003.56,766.854 1029,766.853 1054.51,766.852 1080.11,766.851 
  1105.76,766.85 1131.48,766.849 1157.24,766.848 1183.03,766.848 1208.85,766.847 1234.69,766.846 1260.53,766.846 1286.36,766.845 1312.18,766.844 1337.97,766.844 
  1363.73,766.843 1389.45,766.842 1415.1,766.841 1440.7,766.84 1466.22,766.839 1491.65,766.838 1516.99,766.838 1542.22,766.837 1567.35,766.836 1592.35,766.835 
  1617.23,766.834 1641.96,766.833 1666.55,766.832 1690.99,766.831 1715.27,766.83 1739.37,766.83 1763.3,766.829 1787.05,766.828 1810.61,766.827 1833.98,766.826 
  1857.14,766.825 1880.1,766.824 1902.85,766.823 1925.38,766.822 1947.69,766.821 1969.77,766.82 1991.63,766.82 2013.25,766.819 2034.64,766.818 2055.78,766.817 
  2076.69,766.816 2097.35,766.815 2117.77,766.814 2137.94,766.813 2157.85,766.812 2177.52,766.811 2196.93,766.81 2216.09,766.809 2235,766.808 2253.66,766.807 
  2272.06,766.807 2290.2,766.806 
  "/>
<path clip-path="url(#clip070)" d="
M1981.89 337.138 L2279.08 337.138 L2279.08 95.2176 L1981.89 95.2176  Z
  " fill="#ffffff" fill-rule="evenodd" fill-opacity="1"/>
<polyline clip-path="url(#clip070)" style="stroke:#000000; stroke-width:4; stroke-opacity:1; fill:none" points="
  1981.89,337.138 2279.08,337.138 2279.08,95.2176 1981.89,95.2176 1981.89,337.138 
  "/>
<polyline clip-path="url(#clip070)" style="stroke:#009af9; stroke-width:4; stroke-opacity:1; fill:none" points="
  2006.45,155.698 2153.81,155.698 
  "/>
<path clip-path="url(#clip070)" d="M 0 0 M2192.21 175.385 Q2190.4 180.015 2188.69 181.427 Q2186.98 182.839 2184.11 182.839 L2180.7 182.839 L2180.7 179.274 L2183.2 179.274 Q2184.96 179.274 2185.93 178.44 Q2186.91 177.607 2188.09 174.505 L2188.85 172.561 L2178.36 147.052 L2182.88 147.052 L2190.98 167.329 L2199.08 147.052 L2203.6 147.052 L2192.21 175.385 Z" fill="#000000" fill-rule="evenodd" fill-opacity="1" /><path clip-path="url(#clip070)" d="M 0 0 M2209.48 169.042 L2217.11 169.042 L2217.11 142.677 L2208.8 144.343 L2208.8 140.084 L2217.07 138.418 L2221.74 138.418 L2221.74 169.042 L2229.38 169.042 L2229.38 172.978 L2209.48 172.978 L2209.48 169.042 Z" fill="#000000" fill-rule="evenodd" fill-opacity="1" /><polyline clip-path="url(#clip070)" style="stroke:#e26f46; stroke-width:4; stroke-opacity:1; fill:none" points="
  2006.45,216.178 2153.81,216.178 
  "/>
<path clip-path="url(#clip070)" d="M 0 0 M2192.21 235.865 Q2190.4 240.495 2188.69 241.907 Q2186.98 243.319 2184.11 243.319 L2180.7 243.319 L2180.7 239.754 L2183.2 239.754 Q2184.96 239.754 2185.93 238.92 Q2186.91 238.087 2188.09 234.985 L2188.85 233.041 L2178.36 207.532 L2182.88 207.532 L2190.98 227.809 L2199.08 207.532 L2203.6 207.532 L2192.21 235.865 Z" fill="#000000" fill-rule="evenodd" fill-opacity="1" /><path clip-path="url(#clip070)" d="M 0 0 M2212.69 229.522 L2229.01 229.522 L2229.01 233.458 L2207.07 233.458 L2207.07 229.522 Q2209.73 226.768 2214.31 222.138 Q2218.92 217.485 2220.1 216.143 Q2222.35 213.62 2223.23 211.884 Q2224.13 210.124 2224.13 208.435 Q2224.13 205.68 2222.18 203.944 Q2220.26 202.208 2217.16 202.208 Q2214.96 202.208 2212.51 202.972 Q2210.08 203.735 2207.3 205.286 L2207.3 200.564 Q2210.12 199.43 2212.58 198.851 Q2215.03 198.273 2217.07 198.273 Q2222.44 198.273 2225.63 200.958 Q2228.83 203.643 2228.83 208.134 Q2228.83 210.263 2228.02 212.185 Q2227.23 214.083 2225.12 216.675 Q2224.54 217.347 2221.44 220.564 Q2218.34 223.759 2212.69 229.522 Z" fill="#000000" fill-rule="evenodd" fill-opacity="1" /><polyline clip-path="url(#clip070)" style="stroke:#3da44d; stroke-width:4; stroke-opacity:1; fill:none" points="
  2006.45,276.658 2153.81,276.658 
  "/>
<path clip-path="url(#clip070)" d="M 0 0 M2192.21 296.345 Q2190.4 300.975 2188.69 302.387 Q2186.98 303.799 2184.11 303.799 L2180.7 303.799 L2180.7 300.234 L2183.2 300.234 Q2184.96 300.234 2185.93 299.4 Q2186.91 298.567 2188.09 295.465 L2188.85 293.521 L2178.36 268.012 L2182.88 268.012 L2190.98 288.289 L2199.08 268.012 L2203.6 268.012 L2192.21 296.345 Z" fill="#000000" fill-rule="evenodd" fill-opacity="1" /><path clip-path="url(#clip070)" d="M 0 0 M2222.83 275.303 Q2226.19 276.021 2228.06 278.289 Q2229.96 280.558 2229.96 283.891 Q2229.96 289.007 2226.44 291.808 Q2222.92 294.609 2216.44 294.609 Q2214.27 294.609 2211.95 294.169 Q2209.66 293.752 2207.21 292.896 L2207.21 288.382 Q2209.15 289.516 2211.47 290.095 Q2213.78 290.674 2216.3 290.674 Q2220.7 290.674 2222.99 288.938 Q2225.31 287.201 2225.31 283.891 Q2225.31 280.836 2223.16 279.123 Q2221.03 277.387 2217.21 277.387 L2213.18 277.387 L2213.18 273.544 L2217.39 273.544 Q2220.84 273.544 2222.67 272.178 Q2224.5 270.79 2224.5 268.197 Q2224.5 265.535 2222.6 264.123 Q2220.73 262.688 2217.21 262.688 Q2215.29 262.688 2213.09 263.104 Q2210.89 263.521 2208.25 264.401 L2208.25 260.234 Q2210.91 259.493 2213.23 259.123 Q2215.56 258.753 2217.62 258.753 Q2222.95 258.753 2226.05 261.183 Q2229.15 263.59 2229.15 267.711 Q2229.15 270.581 2227.51 272.572 Q2225.86 274.54 2222.83 275.303 Z" fill="#000000" fill-rule="evenodd" fill-opacity="1" /></svg>
